HIERARCHY
ROOT hip
{
  OFFSET 0 0 0
  CHANNELS 6 Xposition Yposition Zposition Zrotation Yrotation Xrotation
  JOINT abdomen
  {
    OFFSET 0 20.6881 -0.73152
    CHANNELS 3 Zrotation Xrotation Yrotation
    JOINT chest
    {
      OFFSET 0 11.7043 -0.48768
      CHANNELS 3 Zrotation Xrotation Yrotation
      JOINT neck
      {
        OFFSET 0 22.1894 -2.19456
        CHANNELS 3 Zrotation Xrotation Yrotation
        JOINT head
        {
          OFFSET -0.24384 7.07133 1.2192
          CHANNELS 3 Zrotation Xrotation Yrotation
          JOINT leftEye
          {
            OFFSET 4.14528 8.04674 8.04672
            CHANNELS 3 Zrotation Xrotation Yrotation
            End Site
            {
              OFFSET 1 0 0
            }
          }
          JOINT rightEye
          {
            OFFSET -3.6576 8.04674 8.04672
            CHANNELS 3 Zrotation Xrotation Yrotation
            End Site
            {
              OFFSET 1 0 0
            }
          }
        }
      }
      JOINT rCollar
      {
        OFFSET -2.68224 19.2634 -4.8768
        CHANNELS 3 Zrotation Xrotation Yrotation
        JOINT rShldr
        {
          OFFSET -8.77824 -1.95073 1.46304
          CHANNELS 3 Zrotation Xrotation Yrotation
          JOINT rForeArm
          {
            OFFSET -28.1742 -1.7115 0.48768
            CHANNELS 3 Zrotation Xrotation Yrotation
            JOINT rHand
            {
              OFFSET -22.5879 0.773209 7.07136
              CHANNELS 3 Zrotation Xrotation Yrotation
              JOINT rThumb1
              {
                OFFSET -1.2192 -0.487915 3.41376
                CHANNELS 3 Zrotation Xrotation Yrotation
                JOINT rThumb2
                {
                  OFFSET -3.37035 -0.52449 3.41376
                  CHANNELS 3 Zrotation Xrotation Yrotation
                  End Site
                  {
                    OFFSET -1.78271 -1.18214 1.43049
                  }
                }
              }
              JOINT rIndex1
              {
                OFFSET -7.75947 0.938293 5.60832
                CHANNELS 3 Zrotation Xrotation Yrotation
                JOINT rIndex2
                {
                  OFFSET -2.54057 -0.884171 1.56538
                  CHANNELS 3 Zrotation Xrotation Yrotation
                  End Site
                  {
                    OFFSET -1.62519 -0.234802 1.16502
                  }
                }
              }
              JOINT rMid1
              {
                OFFSET -8.24714 1.18213 3.41376
                CHANNELS 3 Zrotation Xrotation Yrotation
                JOINT rMid2
                {
                  OFFSET -3.10165 -0.590103 1.0647
                  CHANNELS 3 Zrotation Xrotation Yrotation
                  End Site
                  {
                    OFFSET -2.48547 -0.328903 0.83742
                  }
                }
              }
              JOINT rRing1
              {
                OFFSET -8.82822 0.546677 1.51678
                CHANNELS 3 Zrotation Xrotation Yrotation
                JOINT rRing2
                {
                  OFFSET -2.60934 -0.819778 -0.0198488
                  CHANNELS 3 Zrotation Xrotation Yrotation
                  End Site
                  {
                    OFFSET -2.33842 -0.294052 0.168128
                  }
                }
              }
              JOINT rPinky1
              {
                OFFSET -8.27202 -0.0477905 -0.4584
                CHANNELS 3 Zrotation Xrotation Yrotation
                JOINT rPinky2
                {
                  OFFSET -1.82734 -0.647385 -0.700984
                  CHANNELS 3 Zrotation Xrotation Yrotation
                  End Site
                  {
                    OFFSET -1.69225 -0.51767 -0.607171
                  }
                }
              }
            }
          }
        }
      }
      JOINT lCollar
      {
        OFFSET 2.68224 19.2634 -4.8768
        CHANNELS 3 Zrotation Xrotation Yrotation
        JOINT lShldr
        {
          OFFSET 8.77824 -1.95073 1.46304
          CHANNELS 3 Zrotation Xrotation Yrotation
          JOINT lForeArm
          {
            OFFSET 28.1742 -1.7115 0.48768
            CHANNELS 3 Zrotation Xrotation Yrotation
            JOINT lHand
            {
              OFFSET 22.5879 0.773209 7.07136
              CHANNELS 3 Zrotation Xrotation Yrotation
              JOINT lThumb1
              {
                OFFSET 1.2192 -0.487915 3.41376
                CHANNELS 3 Zrotation Xrotation Yrotation
                JOINT lThumb2
                {
                  OFFSET 3.37035 -0.52449 3.41376
                  CHANNELS 3 Zrotation Xrotation Yrotation
                  End Site
                  {
                    OFFSET 1.78271 -1.18214 1.43049
                  }
                }
              }
              JOINT lIndex1
              {
                OFFSET 7.75947 0.938293 5.60832
                CHANNELS 3 Zrotation Xrotation Yrotation
                JOINT lIndex2
                {
                  OFFSET 2.54057 -0.884171 1.56538
                  CHANNELS 3 Zrotation Xrotation Yrotation
                  End Site
                  {
                    OFFSET 1.62519 -0.234802 1.16502
                  }
                }
              }
              JOINT lMid1
              {
                OFFSET 8.24714 1.18213 3.41376
                CHANNELS 3 Zrotation Xrotation Yrotation
                JOINT lMid2
                {
                  OFFSET 3.10165 -0.590103 1.0647
                  CHANNELS 3 Zrotation Xrotation Yrotation
                  End Site
                  {
                    OFFSET 2.48547 -0.328903 0.83742
                  }
                }
              }
              JOINT lRing1
              {
                OFFSET 8.82822 0.546677 1.51678
                CHANNELS 3 Zrotation Xrotation Yrotation
                JOINT lRing2
                {
                  OFFSET 2.60934 -0.819778 -0.0198488
                  CHANNELS 3 Zrotation Xrotation Yrotation
                  End Site
                  {
                    OFFSET 2.33842 -0.294052 0.168128
                  }
                }
              }
              JOINT lPinky1
              {
                OFFSET 8.27202 -0.0477905 -0.4584
                CHANNELS 3 Zrotation Xrotation Yrotation
                JOINT lPinky2
                {
                  OFFSET 1.82734 -0.647385 -0.700984
                  CHANNELS 3 Zrotation Xrotation Yrotation
                  End Site
                  {
                    OFFSET 1.69225 -0.51767 -0.607171
                  }
                }
              }
            }
          }
        }
      }
    }
  }
  JOINT rButtock
  {
    OFFSET -8.77824 4.35084 1.2192
    CHANNELS 3 Zrotation Xrotation Yrotation
    JOINT rThigh
    {
      OFFSET 0 -1.70687 -2.19456
      CHANNELS 3 Zrotation Xrotation Yrotation
      JOINT rShin
      {
        OFFSET 0 -36.8199 0.73152
        CHANNELS 3 Zrotation Xrotation Yrotation
        JOINT rFoot
        {
          OFFSET 0.73152 -45.1104 -5.12064
          CHANNELS 3 Zrotation Xrotation Yrotation
          End Site
          {
            OFFSET -1.1221 -3.69964 12.103
          }
        }
      }
    }
  }
  JOINT lButtock
  {
    OFFSET 8.77824 4.35084 1.2192
    CHANNELS 3 Zrotation Xrotation Yrotation
    JOINT lThigh
    {
      OFFSET 0 -1.70687 -2.19456
      CHANNELS 3 Zrotation Xrotation Yrotation
      JOINT lShin
      {
        OFFSET 0 -36.8199 0.73152
        CHANNELS 3 Zrotation Xrotation Yrotation
        JOINT lFoot
        {
          OFFSET -0.73152 -45.1104 -5.12064
          CHANNELS 3 Zrotation Xrotation Yrotation
          End Site
          {
            OFFSET 1.1221 -3.69964 12.103
          }
        }
      }
    }
  }
}
MOTION
Frames:	4
Frame Time:	0.00833333
20.3493 65.0199 77.5311 -164.468 48.8519 -164.912 9.893401 10.260501 10.924002 -0.31465602 -9.4803 3.3362203 0.14880297 14.298699 9.6684 3.5335295 -26.0048 20.016901 0.0 0.0 0.0 0.0 0.0 0.0 3.2026798e-13 3.73745e-13 1.13496994e-13 42.031612 76.0979 27.343107 -27.298197 -43.167698 89.8051 -28.920208 -76.596 -36.162994 3.27367e-10 8.65924e-10 -4.6301898e-10 5.77016e-10 1.11683e-09 -7.6961404e-10 3.2736802e-10 8.6591806e-10 -4.6302098e-10 7.730911 5.47488 0.41731405 3.27366e-10 8.6593605e-10 -4.6301998e-10 2.90554 0.965183 0.102902 3.2737202e-10 8.65922e-10 -4.6301799e-10 10.2786 0.73180103 0.025912303 3.27365e-10 8.6593405e-10 -4.6300397e-10 2.2216702 -0.733487 -0.20892 3.20219e-13 3.73747e-13 1.1330001e-13 -66.2479 8.173478 -35.1618 28.220602 -32.1505 -70.697105 5.5903806e-06 0.924176 -0.12986898 -2.85133e-13 3.02956e-09 1.3977399e-09 2.72049e-12 5.22933e-09 2.41418e-09 -2.94737e-13 3.02957e-09 1.3977599e-09 -7.730911 5.47488 -0.41731405 -2.8432798e-13 3.02956e-09 1.3977399e-09 -2.90554 0.965183 -0.102902 -2.9100997e-13 3.02956e-09 1.3977399e-09 -10.2786 0.73180103 -0.025912303 -2.7908898e-13 3.02957e-09 1.39773e-09 -2.2216702 -0.733487 0.20892 -2.03217e-16 8e-44 -3.88251e-19 -10.7998 -23.536 -28.7792 -2.274061 73.3796 3.7042696 -18.9644 -25.876501 -28.279802 2.03217e-16 8e-44 3.88251e-19 73.6543 -51.5452 64.2672 4.3124895 78.1197 -4.3913918 2.85811 -1.0102301 14.121301
20.4853 65.203606 77.0502 -164.535 48.5932 -164.784 9.88818 9.995391 10.983399 -0.28366598 -9.422779 3.3512695 0.030660663 14.508301 9.55889 3.8171406 -26.540901 19.8956 0.0 0.0 0.0 0.0 0.0 0.0 3.54694e-13 2.4613e-13 -7.13478e-14 37.4095 75.4369 32.3886 -27.4527 -42.667202 88.84901 -22.926197 -74.2997 -29.9746 -5.3289e-10 2.60247e-09 -1.4049199e-10 -9.15449e-10 4.76704e-09 -2.6908e-10 -5.32889e-10 2.60247e-09 -1.4049199e-10 7.730911 5.47488 0.41731405 -5.32891e-10 2.60248e-09 -1.4049e-10 2.90554 0.965183 0.102902 -5.3288596e-10 2.60247e-09 -1.4049101e-10 10.2786 0.73180103 0.025912303 -5.32894e-10 2.60248e-09 -1.40477e-10 2.2216702 -0.733487 -0.20892 3.54612e-13 2.46129e-13 -7.15151e-14 -66.077194 8.763141 -34.880394 28.213198 -32.0866 -70.59229 0.00068857294 0.164787 -0.023168799 1.65402e-10 3.6986698e-09 2.03568e-09 2.90591e-10 6.38564e-09 3.51302e-09 1.65396e-10 3.6986803e-09 2.0356998e-09 -7.730911 5.47488 -0.41731405 1.65402e-10 3.6986698e-09 2.03568e-09 -2.90554 0.965183 -0.102902 1.65394e-10 3.6986698e-09 2.03568e-09 -10.2786 0.73180103 -0.025912303 1.6540899e-10 3.6986698e-09 2.03567e-09 -2.2216702 -0.733487 0.20892 -2.03217e-16 8e-44 -3.88251e-19 -11.0043 -22.7545 -29.600302 -2.1067886 72.474396 3.5377705 -18.852001 -25.8842 -28.186 2.03217e-16 8e-44 3.88251e-19 74.033 -51.025803 65.4939 4.3697996 78.2829 -4.4796596 3.01225 -1.7999201 13.9788
20.6865 65.44791 76.4668 -164.399 48.1501 -164.597 9.935221 9.780471 11.189801 -0.14353402 -9.426581 3.4227002 -0.2495338 14.943701 9.445901 4.2430396 -27.210701 19.810902 0.0 0.0 0.0 0.0 0.0 0.0 2.2616301e-13 -2.1867199e-13 -1.47072e-13 31.558802 74.6381 38.734 -27.582201 -42.2213 87.9978 -17.015604 -70.7959 -23.781395 -2.68516e-09 9.49326e-09 7.0439e-10 -4.6477897e-09 1.81975e-08 1.05141e-09 -2.68516e-09 9.49327e-09 7.04389e-10 7.730911 5.47488 0.41731405 -2.68516e-09 9.49325e-09 7.04396e-10 2.90554 0.965183 0.102902 -2.68515e-09 9.49326e-09 7.0439e-10 10.2786 0.73180103 0.025912303 -2.6851699e-09 9.49328e-09 7.0440204e-10 2.2216702 -0.733487 -0.20892 2.26104e-13 -2.1867401e-13 -1.47139e-13 -66.2355 9.56957 -34.5398 28.186703 -31.874403 -70.2516 0.000534994 0.033226904 -0.0046686204 -5.2581998e-11 4.45828e-09 2.22553e-09 -8.56156e-11 7.70046e-09 3.8401797e-09 -5.2581998e-11 4.45828e-09 2.22555e-09 -7.730911 5.47488 -0.41731405 -5.25817e-11 4.45828e-09 2.22554e-09 -2.90554 0.965183 -0.102902 -5.2589e-11 4.45828e-09 2.22553e-09 -10.2786 0.73180103 -0.025912303 -5.2576502e-11 4.45829e-09 2.22553e-09 -2.2216702 -0.733487 0.20892 -2.03217e-16 8e-44 -3.88251e-19 -11.088499 -21.643 -30.417496 -1.9123105 71.3091 3.3514793 -18.704998 -25.6307 -28.208302 2.03217e-16 8e-44 3.88251e-19 74.42831 -50.247704 66.96731 4.384911 78.3601 -4.5319014 3.28428 -2.3205 14.7404995
20.9736 65.7644 75.7833 -163.962 47.517403 -164.204 10.131802 9.49411 11.335001 0.0075541665 -9.350631 3.4793699 -0.38907796 15.148699 9.243239 4.452679 -27.623901 19.484798 0.0 0.0 0.0 0.0 0.0 0.0 4.43173e-14 -4.64097e-13 1.89858e-13 23.741697 73.5243 47.312798 -27.625002 -42.044697 87.684204 -13.324898 -67.499695 -19.833204 -2.2539302e-09 1.55658e-08 -8.72756e-11 -3.8670698e-09 2.83653e-08 -2.78526e-10 -2.2539302e-09 1.55658e-08 -8.72824e-11 7.730911 5.47488 0.41731405 -2.2539302e-09 1.55658e-08 -8.72721e-11 2.90554 0.965183 0.102902 -2.25392e-09 1.55658e-08 -8.72781e-11 10.2786 0.73180103 0.025912303 -2.25394e-09 1.55658e-08 -8.7268796e-11 2.2216702 -0.733487 -0.20892 4.42356e-14 -4.64098e-13 1.8978001e-13 -66.4579 10.503699 -34.136898 28.1557 -31.640001 -69.875595 0.0024645901 -0.391446 0.055216696 -1.0330801e-09 5.52834e-09 5.44836e-10 -1.77785e-09 9.53208e-09 9.35426e-10 -1.0330801e-09 5.5283302e-09 5.44854e-10 -7.730911 5.47488 -0.41731405 -1.0330801e-09 5.52834e-09 5.44841e-10 -2.90554 0.965183 -0.102902 -1.03309e-09 5.5283302e-09 5.44838e-10 -10.2786 0.73180103 -0.025912303 -1.03307e-09 5.52834e-09 5.44834e-10 -2.2216702 -0.733487 0.20892 -2.03217e-16 8e-44 -3.88251e-19 -10.600801 -20.4479 -30.513502 -1.7112294 69.9371 3.16896 -18.4534 -24.9397 -28.353 2.03217e-16 8e-44 3.88251e-19 74.986694 -49.625 68.7506 4.402041 78.449005 -4.592673 3.5639997 -2.46668 15.979802
